<?xml version="1.0" ?>
<!-- Uploaded to: SVG Repo, www.svgrepo.com, Generator: SVG Repo Mixer Tools -->
<svg fill="#000000" width="800px" height="800px" viewBox="0 0 32.779 32.779" xmlns="http://www.w3.org/2000/svg">
<g transform="translate(-289.272 -129.795)">
<path d="M317.932,131.795a2.121,2.121,0,0,1,2.119,2.119v24.541a2.121,2.121,0,0,1-2.119,2.119H293.39a2.12,2.12,0,0,1-2.118-2.119V133.914a2.12,2.12,0,0,1,2.118-2.119h24.542m0-2H293.39a4.119,4.119,0,0,0-4.118,4.119v24.541a4.119,4.119,0,0,0,4.118,4.119h24.542a4.119,4.119,0,0,0,4.119-4.119V133.914a4.119,4.119,0,0,0-4.119-4.119Z"/>
<rect height="32.779" transform="translate(304.662 129.795)" width="2"/>
<rect height="2" transform="translate(289.272 145.184)" width="32.779"/>
</g>
</svg>